STARTFONT 2.1
COMMENT screen font, 7 x 13 pixels
FONT -misc-fixed-medium-r-normal-sans-13-120-75-75-c-70-iso8859-2
SIZE 13 75 75
FONTBOUNDINGBOX 7 13 0 -2
STARTPROPERTIES 27
FONT_ASCENT 11
FONT_DESCENT 2
DEFAULT_CHAR 0
FONTNAME_REGISTRY ""
FOUNDRY "Misc"
FAMILY_NAME "Fixed"
WEIGHT_NAME "Medium"
SLANT "R"
SETWIDTH_NAME "Normal"
ADD_STYLE_NAME "Sans"
PIXEL_SIZE 13
POINT_SIZE 120
RESOLUTION_X 75
RESOLUTION_Y 75
SPACING "C"
AVERAGE_WIDTH 70
CHARSET_REGISTRY "ISO8859"
CHARSET_ENCODING "2"
UNDERLINE_POSITION -1
DESTINATION 1
COPYRIGHT "Libor Skarvada, libor@informatics.muni.cz"
FONT "-Misc-Fixed-Medium-R-Normal-Sans-13-120-75-75-C-70-ISO8859-2"
WEIGHT 10
RESOLUTION 107
CAP_HEIGHT 8
X_HEIGHT 6
QUAD_WIDTH 7
ENDPROPERTIES
CHARS 224
STARTCHAR 0
ENCODING 0
SWIDTH 560 0
DWIDTH 7 0
BBX 1 1 0 -2
BITMAP
00
ENDCHAR
STARTCHAR 1
ENCODING 1
SWIDTH 560 0
DWIDTH 7 0
BBX 5 5 0 1
BITMAP
20
70
f8
70
20
ENDCHAR
STARTCHAR 2
ENCODING 2
SWIDTH 560 0
DWIDTH 7 0
BBX 6 12 0 -2
BITMAP
a8
54
a8
54
a8
54
a8
54
a8
54
a8
54
ENDCHAR
STARTCHAR 3
ENCODING 3
SWIDTH 560 0
DWIDTH 7 0
BBX 6 10 0 -1
BITMAP
90
90
f0
90
90
1c
08
08
08
08
ENDCHAR
STARTCHAR 4
ENCODING 4
SWIDTH 560 0
DWIDTH 7 0
BBX 6 10 0 -1
BITMAP
f0
80
e0
80
80
3c
20
38
20
20
ENDCHAR
STARTCHAR 5
ENCODING 5
SWIDTH 560 0
DWIDTH 7 0
BBX 6 10 0 -1
BITMAP
70
80
80
80
70
38
24
38
28
24
ENDCHAR
STARTCHAR 6
ENCODING 6
SWIDTH 560 0
DWIDTH 7 0
BBX 6 10 0 -1
BITMAP
80
80
80
80
f0
3c
20
38
20
20
ENDCHAR
STARTCHAR 7
ENCODING 7
SWIDTH 560 0
DWIDTH 7 0
BBX 5 4 0 5
BITMAP
70
88
88
70
ENDCHAR
STARTCHAR 8
ENCODING 8
SWIDTH 560 0
DWIDTH 7 0
BBX 5 7 0 1
BITMAP
20
20
f8
20
20
00
f8
ENDCHAR
STARTCHAR 9
ENCODING 9
SWIDTH 560 0
DWIDTH 7 0
BBX 6 10 0 -1
BITMAP
90
d0
b0
90
90
20
20
20
20
3c
ENDCHAR
STARTCHAR 10
ENCODING 10
SWIDTH 560 0
DWIDTH 7 0
BBX 6 10 0 -1
BITMAP
88
88
50
50
20
7c
10
10
10
10
ENDCHAR
STARTCHAR 11
ENCODING 11
SWIDTH 560 0
DWIDTH 7 0
BBX 4 7 0 4
BITMAP
10
10
10
10
10
10
f0
ENDCHAR
STARTCHAR 12
ENCODING 12
SWIDTH 560 0
DWIDTH 7 0
BBX 4 7 0 -2
BITMAP
f0
10
10
10
10
10
10
ENDCHAR
STARTCHAR 13
ENCODING 13
SWIDTH 560 0
DWIDTH 7 0
BBX 4 7 3 -2
BITMAP
f0
80
80
80
80
80
80
ENDCHAR
STARTCHAR 14
ENCODING 14
SWIDTH 560 0
DWIDTH 7 0
BBX 4 7 3 4
BITMAP
80
80
80
80
80
80
f0
ENDCHAR
STARTCHAR 15
ENCODING 15
SWIDTH 560 0
DWIDTH 7 0
BBX 7 13 0 -2
BITMAP
10
10
10
10
10
10
fe
10
10
10
10
10
10
ENDCHAR
STARTCHAR 16
ENCODING 16
SWIDTH 560 0
DWIDTH 7 0
BBX 7 1 0 8
BITMAP
fe
ENDCHAR
STARTCHAR 17
ENCODING 17
SWIDTH 560 0
DWIDTH 7 0
BBX 7 1 0 6
BITMAP
fe
ENDCHAR
STARTCHAR 18
ENCODING 18
SWIDTH 560 0
DWIDTH 7 0
BBX 7 1 0 4
BITMAP
fe
ENDCHAR
STARTCHAR 19
ENCODING 19
SWIDTH 560 0
DWIDTH 7 0
BBX 7 1 0 2
BITMAP
fe
ENDCHAR
STARTCHAR 20
ENCODING 20
SWIDTH 560 0
DWIDTH 7 0
BBX 7 1 0 0
BITMAP
fe
ENDCHAR
STARTCHAR 21
ENCODING 21
SWIDTH 560 0
DWIDTH 7 0
BBX 4 13 3 -2
BITMAP
80
80
80
80
80
80
f0
80
80
80
80
80
80
ENDCHAR
STARTCHAR 22
ENCODING 22
SWIDTH 560 0
DWIDTH 7 0
BBX 4 13 0 -2
BITMAP
10
10
10
10
10
10
f0
10
10
10
10
10
10
ENDCHAR
STARTCHAR 23
ENCODING 23
SWIDTH 560 0
DWIDTH 7 0
BBX 7 7 0 4
BITMAP
10
10
10
10
10
10
fe
ENDCHAR
STARTCHAR 24
ENCODING 24
SWIDTH 560 0
DWIDTH 7 0
BBX 7 7 0 -2
BITMAP
fe
10
10
10
10
10
10
ENDCHAR
STARTCHAR 25
ENCODING 25
SWIDTH 560 0
DWIDTH 7 0
BBX 1 13 3 -2
BITMAP
80
80
80
80
80
80
80
80
80
80
80
80
80
ENDCHAR
STARTCHAR 26
ENCODING 26
SWIDTH 560 0
DWIDTH 7 0
BBX 6 8 0 0
BITMAP
04
18
60
80
60
18
04
fc
ENDCHAR
STARTCHAR 27
ENCODING 27
SWIDTH 560 0
DWIDTH 7 0
BBX 6 8 0 0
BITMAP
80
60
18
04
18
60
80
fc
ENDCHAR
STARTCHAR 28
ENCODING 28
SWIDTH 560 0
DWIDTH 7 0
BBX 6 6 0 0
BITMAP
fc
48
48
48
48
88
ENDCHAR
STARTCHAR 29
ENCODING 29
SWIDTH 560 0
DWIDTH 7 0
BBX 6 8 0 0
BITMAP
04
08
fc
10
20
fc
40
80
ENDCHAR
STARTCHAR 30
ENCODING 30
SWIDTH 560 0
DWIDTH 7 0
BBX 6 9 0 0
BITMAP
38
44
40
40
e0
40
40
44
b8
ENDCHAR
STARTCHAR 31
ENCODING 31
SWIDTH 560 0
DWIDTH 7 0
BBX 1 1 3 4
BITMAP
80
ENDCHAR
STARTCHAR 32
ENCODING 32
SWIDTH 560 0
DWIDTH 7 0
BBX 1 1 0 -2
BITMAP
00
ENDCHAR
STARTCHAR 33
ENCODING 33
SWIDTH 560 0
DWIDTH 7 0
BBX 1 8 3 0
BITMAP
80
80
80
80
80
80
00
80
ENDCHAR
STARTCHAR 34
ENCODING 34
SWIDTH 560 0
DWIDTH 7 0
BBX 3 3 2 6
BITMAP
a0
a0
a0
ENDCHAR
STARTCHAR 35
ENCODING 35
SWIDTH 560 0
DWIDTH 7 0
BBX 5 7 1 1
BITMAP
50
50
f8
50
f8
50
50
ENDCHAR
STARTCHAR 36
ENCODING 36
SWIDTH 560 0
DWIDTH 7 0
BBX 5 7 1 1
BITMAP
20
78
a0
70
28
f0
20
ENDCHAR
STARTCHAR 37
ENCODING 37
SWIDTH 560 0
DWIDTH 7 0
BBX 6 9 0 0
BITMAP
44
a4
48
10
10
20
48
94
88
ENDCHAR
STARTCHAR 38
ENCODING 38
SWIDTH 560 0
DWIDTH 7 0
BBX 6 7 0 0
BITMAP
60
90
90
60
94
88
74
ENDCHAR
STARTCHAR 39
ENCODING 39
SWIDTH 560 0
DWIDTH 7 0
BBX 4 3 1 6
BITMAP
70
60
80
ENDCHAR
STARTCHAR 40
ENCODING 40
SWIDTH 560 0
DWIDTH 7 0
BBX 3 9 2 0
BITMAP
20
40
40
80
80
80
40
40
20
ENDCHAR
STARTCHAR 41
ENCODING 41
SWIDTH 560 0
DWIDTH 7 0
BBX 3 9 2 0
BITMAP
80
40
40
20
20
20
40
40
80
ENDCHAR
STARTCHAR 42
ENCODING 42
SWIDTH 560 0
DWIDTH 7 0
BBX 6 5 0 2
BITMAP
48
30
fc
30
48
ENDCHAR
STARTCHAR 43
ENCODING 43
SWIDTH 560 0
DWIDTH 7 0
BBX 5 5 1 2
BITMAP
20
20
f8
20
20
ENDCHAR
STARTCHAR 44
ENCODING 44
SWIDTH 560 0
DWIDTH 7 0
BBX 4 3 1 -1
BITMAP
70
60
80
ENDCHAR
STARTCHAR 45
ENCODING 45
SWIDTH 560 0
DWIDTH 7 0
BBX 6 1 0 4
BITMAP
fc
ENDCHAR
STARTCHAR 46
ENCODING 46
SWIDTH 560 0
DWIDTH 7 0
BBX 2 2 2 0
BITMAP
c0
c0
ENDCHAR
STARTCHAR 47
ENCODING 47
SWIDTH 560 0
DWIDTH 7 0
BBX 5 9 1 0
BITMAP
08
08
10
10
20
40
40
80
80
ENDCHAR
STARTCHAR 48
ENCODING 48
SWIDTH 560 0
DWIDTH 7 0
BBX 6 8 0 0
BITMAP
30
48
84
84
84
84
48
30
ENDCHAR
STARTCHAR 49
ENCODING 49
SWIDTH 560 0
DWIDTH 7 0
BBX 5 8 1 0
BITMAP
20
60
a0
20
20
20
20
f8
ENDCHAR
STARTCHAR 50
ENCODING 50
SWIDTH 560 0
DWIDTH 7 0
BBX 6 8 0 0
BITMAP
78
84
04
08
30
40
80
fc
ENDCHAR
STARTCHAR 51
ENCODING 51
SWIDTH 560 0
DWIDTH 7 0
BBX 6 8 0 0
BITMAP
78
84
04
38
04
04
84
78
ENDCHAR
STARTCHAR 52
ENCODING 52
SWIDTH 560 0
DWIDTH 7 0
BBX 6 8 0 0
BITMAP
08
18
28
48
88
fc
08
08
ENDCHAR
STARTCHAR 53
ENCODING 53
SWIDTH 560 0
DWIDTH 7 0
BBX 6 8 0 0
BITMAP
fc
80
80
f8
04
04
84
78
ENDCHAR
STARTCHAR 54
ENCODING 54
SWIDTH 560 0
DWIDTH 7 0
BBX 6 8 0 0
BITMAP
38
40
80
b8
c4
84
84
78
ENDCHAR
STARTCHAR 55
ENCODING 55
SWIDTH 560 0
DWIDTH 7 0
BBX 6 8 0 0
BITMAP
fc
04
04
08
10
20
40
40
ENDCHAR
STARTCHAR 56
ENCODING 56
SWIDTH 560 0
DWIDTH 7 0
BBX 6 8 0 0
BITMAP
78
84
84
78
84
84
84
78
ENDCHAR
STARTCHAR 57
ENCODING 57
SWIDTH 560 0
DWIDTH 7 0
BBX 6 8 0 0
BITMAP
78
84
84
8c
74
04
08
70
ENDCHAR
STARTCHAR 58
ENCODING 58
SWIDTH 560 0
DWIDTH 7 0
BBX 2 6 2 1
BITMAP
c0
c0
00
00
c0
c0
ENDCHAR
STARTCHAR 59
ENCODING 59
SWIDTH 560 0
DWIDTH 7 0
BBX 3 7 1 -1
BITMAP
60
60
00
00
60
60
80
ENDCHAR
STARTCHAR 60
ENCODING 60
SWIDTH 560 0
DWIDTH 7 0
BBX 5 9 1 0
BITMAP
08
10
20
40
80
40
20
10
08
ENDCHAR
STARTCHAR 61
ENCODING 61
SWIDTH 560 0
DWIDTH 7 0
BBX 6 4 0 2
BITMAP
fc
00
00
fc
ENDCHAR
STARTCHAR 62
ENCODING 62
SWIDTH 560 0
DWIDTH 7 0
BBX 5 9 1 0
BITMAP
80
40
20
10
08
10
20
40
80
ENDCHAR
STARTCHAR 63
ENCODING 63
SWIDTH 560 0
DWIDTH 7 0
BBX 5 8 1 0
BITMAP
70
88
08
10
20
20
00
20
ENDCHAR
STARTCHAR 64
ENCODING 64
SWIDTH 560 0
DWIDTH 7 0
BBX 6 8 0 0
BITMAP
78
84
9c
a4
ac
94
80
78
ENDCHAR
STARTCHAR 65
ENCODING 65
SWIDTH 560 0
DWIDTH 7 0
BBX 6 8 0 0
BITMAP
30
48
84
84
fc
84
84
84
ENDCHAR
STARTCHAR 66
ENCODING 66
SWIDTH 560 0
DWIDTH 7 0
BBX 6 8 0 0
BITMAP
f8
44
44
78
44
44
44
f8
ENDCHAR
STARTCHAR 67
ENCODING 67
SWIDTH 560 0
DWIDTH 7 0
BBX 6 8 0 0
BITMAP
78
84
80
80
80
80
84
78
ENDCHAR
STARTCHAR 68
ENCODING 68
SWIDTH 560 0
DWIDTH 7 0
BBX 6 8 0 0
BITMAP
f8
44
44
44
44
44
44
f8
ENDCHAR
STARTCHAR 69
ENCODING 69
SWIDTH 560 0
DWIDTH 7 0
BBX 6 8 0 0
BITMAP
fc
80
80
f0
80
80
80
fc
ENDCHAR
STARTCHAR 70
ENCODING 70
SWIDTH 560 0
DWIDTH 7 0
BBX 6 8 0 0
BITMAP
fc
80
80
f0
80
80
80
80
ENDCHAR
STARTCHAR 71
ENCODING 71
SWIDTH 560 0
DWIDTH 7 0
BBX 6 8 0 0
BITMAP
78
84
80
80
9c
84
8c
74
ENDCHAR
STARTCHAR 72
ENCODING 72
SWIDTH 560 0
DWIDTH 7 0
BBX 6 8 0 0
BITMAP
84
84
84
fc
84
84
84
84
ENDCHAR
STARTCHAR 73
ENCODING 73
SWIDTH 560 0
DWIDTH 7 0
BBX 5 8 1 0
BITMAP
f8
20
20
20
20
20
20
f8
ENDCHAR
STARTCHAR 74
ENCODING 74
SWIDTH 560 0
DWIDTH 7 0
BBX 6 8 0 0
BITMAP
1c
08
08
08
08
08
88
70
ENDCHAR
STARTCHAR 75
ENCODING 75
SWIDTH 560 0
DWIDTH 7 0
BBX 6 8 0 0
BITMAP
84
88
90
e0
a0
90
88
84
ENDCHAR
STARTCHAR 76
ENCODING 76
SWIDTH 560 0
DWIDTH 7 0
BBX 6 8 0 0
BITMAP
80
80
80
80
80
80
80
fc
ENDCHAR
STARTCHAR 77
ENCODING 77
SWIDTH 560 0
DWIDTH 7 0
BBX 6 8 0 0
BITMAP
84
cc
cc
b4
b4
84
84
84
ENDCHAR
STARTCHAR 78
ENCODING 78
SWIDTH 560 0
DWIDTH 7 0
BBX 6 8 0 0
BITMAP
84
84
c4
a4
94
8c
84
84
ENDCHAR
STARTCHAR 79
ENCODING 79
SWIDTH 560 0
DWIDTH 7 0
BBX 6 8 0 0
BITMAP
78
84
84
84
84
84
84
78
ENDCHAR
STARTCHAR 80
ENCODING 80
SWIDTH 560 0
DWIDTH 7 0
BBX 6 8 0 0
BITMAP
f8
84
84
f8
80
80
80
80
ENDCHAR
STARTCHAR 81
ENCODING 81
SWIDTH 560 0
DWIDTH 7 0
BBX 6 9 0 -1
BITMAP
78
84
84
84
84
a4
94
78
04
ENDCHAR
STARTCHAR 82
ENCODING 82
SWIDTH 560 0
DWIDTH 7 0
BBX 6 8 0 0
BITMAP
f8
84
84
f8
a0
90
88
84
ENDCHAR
STARTCHAR 83
ENCODING 83
SWIDTH 560 0
DWIDTH 7 0
BBX 6 8 0 0
BITMAP
78
84
80
70
08
04
84
78
ENDCHAR
STARTCHAR 84
ENCODING 84
SWIDTH 560 0
DWIDTH 7 0
BBX 5 8 1 0
BITMAP
f8
20
20
20
20
20
20
20
ENDCHAR
STARTCHAR 85
ENCODING 85
SWIDTH 560 0
DWIDTH 7 0
BBX 6 8 0 0
BITMAP
84
84
84
84
84
84
84
78
ENDCHAR
STARTCHAR 86
ENCODING 86
SWIDTH 560 0
DWIDTH 7 0
BBX 6 8 0 0
BITMAP
84
84
48
48
48
30
30
30
ENDCHAR
STARTCHAR 87
ENCODING 87
SWIDTH 560 0
DWIDTH 7 0
BBX 6 8 0 0
BITMAP
84
84
84
b4
b4
cc
cc
84
ENDCHAR
STARTCHAR 88
ENCODING 88
SWIDTH 560 0
DWIDTH 7 0
BBX 6 8 0 0
BITMAP
84
48
48
30
30
48
48
84
ENDCHAR
STARTCHAR 89
ENCODING 89
SWIDTH 560 0
DWIDTH 7 0
BBX 5 8 1 0
BITMAP
88
88
50
50
20
20
20
20
ENDCHAR
STARTCHAR 90
ENCODING 90
SWIDTH 560 0
DWIDTH 7 0
BBX 6 8 0 0
BITMAP
fc
04
08
10
20
40
80
fc
ENDCHAR
STARTCHAR 91
ENCODING 91
SWIDTH 560 0
DWIDTH 7 0
BBX 4 9 1 0
BITMAP
f0
80
80
80
80
80
80
80
f0
ENDCHAR
STARTCHAR 92
ENCODING 92
SWIDTH 560 0
DWIDTH 7 0
BBX 5 9 1 0
BITMAP
80
80
40
40
20
10
10
08
08
ENDCHAR
STARTCHAR 93
ENCODING 93
SWIDTH 560 0
DWIDTH 7 0
BBX 4 9 1 0
BITMAP
f0
10
10
10
10
10
10
10
f0
ENDCHAR
STARTCHAR 94
ENCODING 94
SWIDTH 560 0
DWIDTH 7 0
BBX 5 3 1 6
BITMAP
20
50
88
ENDCHAR
STARTCHAR 95
ENCODING 95
SWIDTH 560 0
DWIDTH 7 0
BBX 6 1 0 -1
BITMAP
fc
ENDCHAR
STARTCHAR 96
ENCODING 96
SWIDTH 560 0
DWIDTH 7 0
BBX 4 3 1 6
BITMAP
e0
60
10
ENDCHAR
STARTCHAR 97
ENCODING 97
SWIDTH 560 0
DWIDTH 7 0
BBX 6 6 0 0
BITMAP
78
04
7c
84
8c
74
ENDCHAR
STARTCHAR 98
ENCODING 98
SWIDTH 560 0
DWIDTH 7 0
BBX 6 8 0 0
BITMAP
80
80
b8
c4
84
84
c4
b8
ENDCHAR
STARTCHAR 99
ENCODING 99
SWIDTH 560 0
DWIDTH 7 0
BBX 6 6 0 0
BITMAP
78
84
80
80
84
78
ENDCHAR
STARTCHAR 100
ENCODING 100
SWIDTH 560 0
DWIDTH 7 0
BBX 6 8 0 0
BITMAP
04
04
74
8c
84
84
8c
74
ENDCHAR
STARTCHAR 101
ENCODING 101
SWIDTH 560 0
DWIDTH 7 0
BBX 6 6 0 0
BITMAP
78
84
fc
80
84
78
ENDCHAR
STARTCHAR 102
ENCODING 102
SWIDTH 560 0
DWIDTH 7 0
BBX 6 8 0 0
BITMAP
38
44
40
40
f0
40
40
40
ENDCHAR
STARTCHAR 103
ENCODING 103
SWIDTH 560 0
DWIDTH 7 0
BBX 6 8 0 -2
BITMAP
74
88
88
70
80
78
84
78
ENDCHAR
STARTCHAR 104
ENCODING 104
SWIDTH 560 0
DWIDTH 7 0
BBX 6 8 0 0
BITMAP
80
80
b8
c4
84
84
84
84
ENDCHAR
STARTCHAR 105
ENCODING 105
SWIDTH 560 0
DWIDTH 7 0
BBX 5 8 1 0
BITMAP
20
00
60
20
20
20
20
f8
ENDCHAR
STARTCHAR 106
ENCODING 106
SWIDTH 560 0
DWIDTH 7 0
BBX 5 10 1 -2
BITMAP
08
00
18
08
08
08
08
88
88
70
ENDCHAR
STARTCHAR 107
ENCODING 107
SWIDTH 560 0
DWIDTH 7 0
BBX 6 8 0 0
BITMAP
80
80
88
90
e0
90
88
84
ENDCHAR
STARTCHAR 108
ENCODING 108
SWIDTH 560 0
DWIDTH 7 0
BBX 5 8 1 0
BITMAP
60
20
20
20
20
20
20
f8
ENDCHAR
STARTCHAR 109
ENCODING 109
SWIDTH 560 0
DWIDTH 7 0
BBX 5 6 1 0
BITMAP
d0
a8
a8
a8
a8
88
ENDCHAR
STARTCHAR 110
ENCODING 110
SWIDTH 560 0
DWIDTH 7 0
BBX 6 6 0 0
BITMAP
b8
c4
84
84
84
84
ENDCHAR
STARTCHAR 111
ENCODING 111
SWIDTH 560 0
DWIDTH 7 0
BBX 6 6 0 0
BITMAP
78
84
84
84
84
78
ENDCHAR
STARTCHAR 112
ENCODING 112
SWIDTH 560 0
DWIDTH 7 0
BBX 6 8 0 -2
BITMAP
b8
c4
84
c4
b8
80
80
80
ENDCHAR
STARTCHAR 113
ENCODING 113
SWIDTH 560 0
DWIDTH 7 0
BBX 6 8 0 -2
BITMAP
74
8c
84
8c
74
04
04
04
ENDCHAR
STARTCHAR 114
ENCODING 114
SWIDTH 560 0
DWIDTH 7 0
BBX 6 6 0 0
BITMAP
b8
44
40
40
40
40
ENDCHAR
STARTCHAR 115
ENCODING 115
SWIDTH 560 0
DWIDTH 7 0
BBX 6 6 0 0
BITMAP
78
84
60
18
84
78
ENDCHAR
STARTCHAR 116
ENCODING 116
SWIDTH 560 0
DWIDTH 7 0
BBX 6 8 0 0
BITMAP
40
40
f0
40
40
40
44
38
ENDCHAR
STARTCHAR 117
ENCODING 117
SWIDTH 560 0
DWIDTH 7 0
BBX 6 6 0 0
BITMAP
84
84
84
84
8c
74
ENDCHAR
STARTCHAR 118
ENCODING 118
SWIDTH 560 0
DWIDTH 7 0
BBX 5 6 1 0
BITMAP
88
88
88
50
50
20
ENDCHAR
STARTCHAR 119
ENCODING 119
SWIDTH 560 0
DWIDTH 7 0
BBX 5 6 1 0
BITMAP
88
88
a8
a8
a8
50
ENDCHAR
STARTCHAR 120
ENCODING 120
SWIDTH 560 0
DWIDTH 7 0
BBX 6 6 0 0
BITMAP
84
48
30
30
48
84
ENDCHAR
STARTCHAR 121
ENCODING 121
SWIDTH 560 0
DWIDTH 7 0
BBX 6 8 0 -2
BITMAP
84
84
84
8c
74
04
04
78
ENDCHAR
STARTCHAR 122
ENCODING 122
SWIDTH 560 0
DWIDTH 7 0
BBX 6 6 0 0
BITMAP
fc
08
10
20
40
fc
ENDCHAR
STARTCHAR 123
ENCODING 123
SWIDTH 560 0
DWIDTH 7 0
BBX 5 9 1 0
BITMAP
38
40
40
20
c0
20
40
40
38
ENDCHAR
STARTCHAR 124
ENCODING 124
SWIDTH 560 0
DWIDTH 7 0
BBX 1 9 3 0
BITMAP
80
80
80
80
80
80
80
80
80
ENDCHAR
STARTCHAR 125
ENCODING 125
SWIDTH 560 0
DWIDTH 7 0
BBX 5 9 1 0
BITMAP
e0
10
10
20
18
20
10
10
e0
ENDCHAR
STARTCHAR 126
ENCODING 126
SWIDTH 560 0
DWIDTH 7 0
BBX 5 3 1 6
BITMAP
48
a8
90
ENDCHAR
STARTCHAR 127
ENCODING 127
SWIDTH 560 0
DWIDTH 7 0
BBX 1 1 0 -2
BITMAP
00
ENDCHAR
STARTCHAR 160
ENCODING 160
SWIDTH 560 0
DWIDTH 7 0
BBX 1 1 0 -2
BITMAP
00
ENDCHAR
STARTCHAR 161
ENCODING 161
SWIDTH 560 0
DWIDTH 7 0
BBX 6 10 0 -2
BITMAP
30
48
84
84
fc
84
84
84
08
04
ENDCHAR
STARTCHAR 162
ENCODING 162
SWIDTH 560 0
DWIDTH 7 0
BBX 6 2 0 9
BITMAP
84
78
ENDCHAR
STARTCHAR 163
ENCODING 163
SWIDTH 560 0
DWIDTH 7 0
BBX 6 8 0 0
BITMAP
40
40
50
60
40
c0
40
7c
ENDCHAR
STARTCHAR 164
ENCODING 164
SWIDTH 560 0
DWIDTH 7 0
BBX 6 6 0 1
BITMAP
84
78
48
48
78
84
ENDCHAR
STARTCHAR 165
ENCODING 165
SWIDTH 560 0
DWIDTH 7 0
BBX 6 9 0 0
BITMAP
18
88
90
80
80
80
80
80
fc
ENDCHAR
STARTCHAR 166
ENCODING 166
SWIDTH 560 0
DWIDTH 7 0
BBX 6 11 0 0
BITMAP
0c
30
00
78
84
80
70
08
04
84
78
ENDCHAR
STARTCHAR 167
ENCODING 167
SWIDTH 560 0
DWIDTH 7 0
BBX 4 10 1 0
BITMAP
60
90
80
60
90
90
60
10
90
60
ENDCHAR
STARTCHAR 168
ENCODING 168
SWIDTH 560 0
DWIDTH 7 0
BBX 5 1 1 8
BITMAP
d8
ENDCHAR
STARTCHAR 169
ENCODING 169
SWIDTH 560 0
DWIDTH 7 0
BBX 6 11 0 0
BITMAP
48
30
00
78
84
80
70
08
04
84
78
ENDCHAR
STARTCHAR 170
ENCODING 170
SWIDTH 560 0
DWIDTH 7 0
BBX 6 10 0 -2
BITMAP
78
84
80
70
08
04
84
78
10
20
ENDCHAR
STARTCHAR 171
ENCODING 171
SWIDTH 560 0
DWIDTH 7 0
BBX 5 11 1 0
BITMAP
50
20
00
f8
20
20
20
20
20
20
20
ENDCHAR
STARTCHAR 172
ENCODING 172
SWIDTH 560 0
DWIDTH 7 0
BBX 6 11 0 0
BITMAP
0c
30
00
fc
04
08
10
20
40
80
fc
ENDCHAR
STARTCHAR 173
ENCODING 173
SWIDTH 560 0
DWIDTH 7 0
BBX 5 1 1 4
BITMAP
f8
ENDCHAR
STARTCHAR 174
ENCODING 174
SWIDTH 560 0
DWIDTH 7 0
BBX 6 11 0 0
BITMAP
48
30
00
fc
04
08
10
20
40
80
fc
ENDCHAR
STARTCHAR 175
ENCODING 175
SWIDTH 560 0
DWIDTH 7 0
BBX 6 10 0 0
BITMAP
30
00
fc
04
08
10
20
40
80
fc
ENDCHAR
STARTCHAR 176
ENCODING 176
SWIDTH 560 0
DWIDTH 7 0
BBX 4 4 1 5
BITMAP
60
90
90
60
ENDCHAR
STARTCHAR 177
ENCODING 177
SWIDTH 560 0
DWIDTH 7 0
BBX 6 8 0 -2
BITMAP
78
04
7c
84
8c
74
08
04
ENDCHAR
STARTCHAR 178
ENCODING 178
SWIDTH 560 0
DWIDTH 7 0
BBX 2 3 3 -2
BITMAP
c0
80
40
ENDCHAR
STARTCHAR 179
ENCODING 179
SWIDTH 560 0
DWIDTH 7 0
BBX 5 8 0 0
BITMAP
60
28
30
20
60
a0
20
f8
ENDCHAR
STARTCHAR 180
ENCODING 180
SWIDTH 560 0
DWIDTH 7 0
BBX 4 2 2 7
BITMAP
30
c0
ENDCHAR
STARTCHAR 181
ENCODING 181
SWIDTH 560 0
DWIDTH 7 0
BBX 6 9 0 0
BITMAP
0c
64
28
20
20
20
20
20
f8
ENDCHAR
STARTCHAR 182
ENCODING 182
SWIDTH 560 0
DWIDTH 7 0
BBX 6 9 0 0
BITMAP
0c
30
00
78
84
60
18
84
78
ENDCHAR
STARTCHAR 183
ENCODING 183
SWIDTH 560 0
DWIDTH 7 0
BBX 4 2 1 8
BITMAP
90
60
ENDCHAR
STARTCHAR 184
ENCODING 184
SWIDTH 560 0
DWIDTH 7 0
BBX 2 3 2 -2
BITMAP
c0
40
80
ENDCHAR
STARTCHAR 185
ENCODING 185
SWIDTH 560 0
DWIDTH 7 0
BBX 6 9 0 0
BITMAP
48
30
00
78
84
60
18
84
78
ENDCHAR
STARTCHAR 186
ENCODING 186
SWIDTH 560 0
DWIDTH 7 0
BBX 6 8 0 -2
BITMAP
78
84
60
18
84
78
10
20
ENDCHAR
STARTCHAR 187
ENCODING 187
SWIDTH 560 0
DWIDTH 7 0
BBX 6 9 0 0
BITMAP
0c
44
48
f0
40
40
40
44
38
ENDCHAR
STARTCHAR 188
ENCODING 188
SWIDTH 560 0
DWIDTH 7 0
BBX 6 9 0 0
BITMAP
0c
30
00
fc
08
10
20
40
fc
ENDCHAR
STARTCHAR 189
ENCODING 189
SWIDTH 560 0
DWIDTH 7 0
BBX 5 2 1 8
BITMAP
48
90
ENDCHAR
STARTCHAR 190
ENCODING 190
SWIDTH 560 0
DWIDTH 7 0
BBX 6 9 0 0
BITMAP
48
30
00
fc
08
10
20
40
fc
ENDCHAR
STARTCHAR 191
ENCODING 191
SWIDTH 560 0
DWIDTH 7 0
BBX 6 8 0 0
BITMAP
30
00
fc
08
10
20
40
fc
ENDCHAR
STARTCHAR 192
ENCODING 192
SWIDTH 560 0
DWIDTH 7 0
BBX 6 11 0 0
BITMAP
0c
30
00
f8
84
84
f8
a0
90
88
84
ENDCHAR
STARTCHAR 193
ENCODING 193
SWIDTH 560 0
DWIDTH 7 0
BBX 6 11 0 0
BITMAP
0c
30
00
30
48
84
84
fc
84
84
84
ENDCHAR
STARTCHAR 194
ENCODING 194
SWIDTH 560 0
DWIDTH 7 0
BBX 6 11 0 0
BITMAP
30
48
00
30
48
84
84
fc
84
84
84
ENDCHAR
STARTCHAR 195
ENCODING 195
SWIDTH 560 0
DWIDTH 7 0
BBX 6 11 0 0
BITMAP
84
78
00
30
48
84
84
fc
84
84
84
ENDCHAR
STARTCHAR 196
ENCODING 196
SWIDTH 560 0
DWIDTH 7 0
BBX 6 10 0 0
BITMAP
48
00
30
48
84
84
fc
84
84
84
ENDCHAR
STARTCHAR 197
ENCODING 197
SWIDTH 560 0
DWIDTH 7 0
BBX 6 11 0 0
BITMAP
0c
30
00
80
80
80
80
80
80
80
fc
ENDCHAR
STARTCHAR 198
ENCODING 198
SWIDTH 560 0
DWIDTH 7 0
BBX 6 11 0 0
BITMAP
0c
30
00
78
84
80
80
80
80
84
78
ENDCHAR
STARTCHAR 199
ENCODING 199
SWIDTH 560 0
DWIDTH 7 0
BBX 6 10 0 -2
BITMAP
78
84
80
80
80
80
84
78
10
20
ENDCHAR
STARTCHAR 200
ENCODING 200
SWIDTH 560 0
DWIDTH 7 0
BBX 6 11 0 0
BITMAP
48
30
00
78
84
80
80
80
80
84
78
ENDCHAR
STARTCHAR 201
ENCODING 201
SWIDTH 560 0
DWIDTH 7 0
BBX 6 11 0 0
BITMAP
0c
30
00
fc
80
80
f0
80
80
80
fc
ENDCHAR
STARTCHAR 202
ENCODING 202
SWIDTH 560 0
DWIDTH 7 0
BBX 6 10 0 -2
BITMAP
fc
80
80
f0
80
80
80
fc
08
04
ENDCHAR
STARTCHAR 203
ENCODING 203
SWIDTH 560 0
DWIDTH 7 0
BBX 6 10 0 0
BITMAP
48
00
fc
80
80
f0
80
80
80
fc
ENDCHAR
STARTCHAR 204
ENCODING 204
SWIDTH 560 0
DWIDTH 7 0
BBX 6 11 0 0
BITMAP
48
30
00
fc
80
80
f0
80
80
80
fc
ENDCHAR
STARTCHAR 205
ENCODING 205
SWIDTH 560 0
DWIDTH 7 0
BBX 5 11 1 0
BITMAP
18
60
00
f8
20
20
20
20
20
20
f8
ENDCHAR
STARTCHAR 206
ENCODING 206
SWIDTH 560 0
DWIDTH 7 0
BBX 5 11 1 0
BITMAP
20
50
00
f8
20
20
20
20
20
20
f8
ENDCHAR
STARTCHAR 207
ENCODING 207
SWIDTH 560 0
DWIDTH 7 0
BBX 6 11 0 0
BITMAP
48
30
00
f8
44
44
44
44
44
44
f8
ENDCHAR
STARTCHAR 208
ENCODING 208
SWIDTH 560 0
DWIDTH 7 0
BBX 6 8 0 0
BITMAP
f8
44
44
e4
44
44
44
f8
ENDCHAR
STARTCHAR 209
ENCODING 209
SWIDTH 560 0
DWIDTH 7 0
BBX 6 11 0 0
BITMAP
0c
30
00
84
84
c4
a4
94
8c
84
84
ENDCHAR
STARTCHAR 210
ENCODING 210
SWIDTH 560 0
DWIDTH 7 0
BBX 6 11 0 0
BITMAP
48
30
00
84
84
c4
a4
94
8c
84
84
ENDCHAR
STARTCHAR 211
ENCODING 211
SWIDTH 560 0
DWIDTH 7 0
BBX 6 11 0 0
BITMAP
0c
30
00
78
84
84
84
84
84
84
78
ENDCHAR
STARTCHAR 212
ENCODING 212
SWIDTH 560 0
DWIDTH 7 0
BBX 6 11 0 0
BITMAP
30
48
00
78
84
84
84
84
84
84
78
ENDCHAR
STARTCHAR 213
ENCODING 213
SWIDTH 560 0
DWIDTH 7 0
BBX 6 11 0 0
BITMAP
24
48
00
78
84
84
84
84
84
84
78
ENDCHAR
STARTCHAR 214
ENCODING 214
SWIDTH 560 0
DWIDTH 7 0
BBX 6 10 0 0
BITMAP
48
00
78
84
84
84
84
84
84
78
ENDCHAR
STARTCHAR 215
ENCODING 215
SWIDTH 560 0
DWIDTH 7 0
BBX 6 6 0 1
BITMAP
84
48
30
30
48
84
ENDCHAR
STARTCHAR 216
ENCODING 216
SWIDTH 560 0
DWIDTH 7 0
BBX 6 11 0 0
BITMAP
48
30
00
f8
84
84
f8
a0
90
88
84
ENDCHAR
STARTCHAR 217
ENCODING 217
SWIDTH 560 0
DWIDTH 7 0
BBX 6 11 0 0
BITMAP
30
48
30
84
84
84
84
84
84
84
78
ENDCHAR
STARTCHAR 218
ENCODING 218
SWIDTH 560 0
DWIDTH 7 0
BBX 6 11 0 0
BITMAP
0c
30
00
84
84
84
84
84
84
84
78
ENDCHAR
STARTCHAR 219
ENCODING 219
SWIDTH 560 0
DWIDTH 7 0
BBX 6 11 0 0
BITMAP
24
48
00
84
84
84
84
84
84
84
78
ENDCHAR
STARTCHAR 220
ENCODING 220
SWIDTH 560 0
DWIDTH 7 0
BBX 6 10 0 0
BITMAP
48
00
84
84
84
84
84
84
84
78
ENDCHAR
STARTCHAR 221
ENCODING 221
SWIDTH 560 0
DWIDTH 7 0
BBX 5 11 0 0
BITMAP
18
60
00
88
88
50
50
20
20
20
20
ENDCHAR
STARTCHAR 222
ENCODING 222
SWIDTH 560 0
DWIDTH 7 0
BBX 5 10 1 -2
BITMAP
f8
20
20
20
20
20
20
20
10
20
ENDCHAR
STARTCHAR 223
ENCODING 223
SWIDTH 560 0
DWIDTH 7 0
BBX 6 9 0 -1
BITMAP
78
84
84
f8
84
84
c4
b8
80
ENDCHAR
STARTCHAR 224
ENCODING 224
SWIDTH 560 0
DWIDTH 7 0
BBX 6 9 0 0
BITMAP
0c
30
00
b8
44
40
40
40
40
ENDCHAR
STARTCHAR 225
ENCODING 225
SWIDTH 560 0
DWIDTH 7 0
BBX 6 9 0 0
BITMAP
0c
30
00
78
04
7c
84
8c
74
ENDCHAR
STARTCHAR 226
ENCODING 226
SWIDTH 560 0
DWIDTH 7 0
BBX 6 9 0 0
BITMAP
30
48
00
78
04
7c
84
8c
74
ENDCHAR
STARTCHAR 227
ENCODING 227
SWIDTH 560 0
DWIDTH 7 0
BBX 6 9 0 0
BITMAP
84
78
00
78
04
7c
84
8c
74
ENDCHAR
STARTCHAR 228
ENCODING 228
SWIDTH 560 0
DWIDTH 7 0
BBX 6 9 0 0
BITMAP
48
00
00
78
04
7c
84
8c
74
ENDCHAR
STARTCHAR 229
ENCODING 229
SWIDTH 560 0
DWIDTH 7 0
BBX 6 11 0 0
BITMAP
0c
30
00
60
20
20
20
20
20
20
f8
ENDCHAR
STARTCHAR 230
ENCODING 230
SWIDTH 560 0
DWIDTH 7 0
BBX 6 9 0 0
BITMAP
0c
30
00
78
84
80
80
84
78
ENDCHAR
STARTCHAR 231
ENCODING 231
SWIDTH 560 0
DWIDTH 7 0
BBX 6 8 0 -2
BITMAP
78
84
80
80
84
78
10
20
ENDCHAR
STARTCHAR 232
ENCODING 232
SWIDTH 560 0
DWIDTH 7 0
BBX 6 9 0 0
BITMAP
48
30
00
78
84
80
80
84
78
ENDCHAR
STARTCHAR 233
ENCODING 233
SWIDTH 560 0
DWIDTH 7 0
BBX 6 9 0 0
BITMAP
0c
30
00
78
84
fc
80
84
78
ENDCHAR
STARTCHAR 234
ENCODING 234
SWIDTH 560 0
DWIDTH 7 0
BBX 6 8 0 -2
BITMAP
78
84
fc
80
84
78
10
08
ENDCHAR
STARTCHAR 235
ENCODING 235
SWIDTH 560 0
DWIDTH 7 0
BBX 6 8 0 0
BITMAP
48
00
78
84
fc
80
84
78
ENDCHAR
STARTCHAR 236
ENCODING 236
SWIDTH 560 0
DWIDTH 7 0
BBX 6 9 0 0
BITMAP
48
30
00
78
84
fc
80
84
78
ENDCHAR
STARTCHAR 237
ENCODING 237
SWIDTH 560 0
DWIDTH 7 0
BBX 5 9 1 0
BITMAP
18
60
00
60
20
20
20
20
f8
ENDCHAR
STARTCHAR 238
ENCODING 238
SWIDTH 560 0
DWIDTH 7 0
BBX 5 9 1 0
BITMAP
60
90
00
60
20
20
20
20
f8
ENDCHAR
STARTCHAR 239
ENCODING 239
SWIDTH 560 0
DWIDTH 7 0
BBX 7 10 0 0
BITMAP
06
02
0a
08
68
98
88
88
98
68
ENDCHAR
STARTCHAR 240
ENCODING 240
SWIDTH 560 0
DWIDTH 7 0
BBX 6 9 0 0
BITMAP
08
3c
08
68
98
88
88
98
68
ENDCHAR
STARTCHAR 241
ENCODING 241
SWIDTH 560 0
DWIDTH 7 0
BBX 6 9 0 0
BITMAP
0c
30
00
b8
c4
84
84
84
84
ENDCHAR
STARTCHAR 242
ENCODING 242
SWIDTH 560 0
DWIDTH 7 0
BBX 6 9 0 0
BITMAP
48
30
00
b8
c4
84
84
84
84
ENDCHAR
STARTCHAR 243
ENCODING 243
SWIDTH 560 0
DWIDTH 7 0
BBX 6 9 0 0
BITMAP
0c
30
00
78
84
84
84
84
78
ENDCHAR
STARTCHAR 244
ENCODING 244
SWIDTH 560 0
DWIDTH 7 0
BBX 6 9 0 0
BITMAP
30
48
00
78
84
84
84
84
78
ENDCHAR
STARTCHAR 245
ENCODING 245
SWIDTH 560 0
DWIDTH 7 0
BBX 6 9 0 0
BITMAP
24
48
00
78
84
84
84
84
78
ENDCHAR
STARTCHAR 246
ENCODING 246
SWIDTH 560 0
DWIDTH 7 0
BBX 6 9 0 0
BITMAP
48
00
00
78
84
84
84
84
78
ENDCHAR
STARTCHAR 247
ENCODING 247
SWIDTH 560 0
DWIDTH 7 0
BBX 5 7 1 1
BITMAP
20
20
00
f8
00
20
20
ENDCHAR
STARTCHAR 248
ENCODING 248
SWIDTH 560 0
DWIDTH 7 0
BBX 6 9 0 0
BITMAP
48
30
00
b8
44
40
40
40
40
ENDCHAR
STARTCHAR 249
ENCODING 249
SWIDTH 560 0
DWIDTH 7 0
BBX 6 10 0 0
BITMAP
30
48
30
00
84
84
84
84
8c
74
ENDCHAR
STARTCHAR 250
ENCODING 250
SWIDTH 560 0
DWIDTH 7 0
BBX 6 9 0 0
BITMAP
0c
30
00
84
84
84
84
8c
74
ENDCHAR
STARTCHAR 251
ENCODING 251
SWIDTH 560 0
DWIDTH 7 0
BBX 6 9 0 0
BITMAP
24
48
00
84
84
84
84
8c
74
ENDCHAR
STARTCHAR 252
ENCODING 252
SWIDTH 560 0
DWIDTH 7 0
BBX 6 9 0 0
BITMAP
48
00
00
84
84
84
84
8c
74
ENDCHAR
STARTCHAR 253
ENCODING 253
SWIDTH 560 0
DWIDTH 7 0
BBX 6 11 0 -2
BITMAP
0c
30
00
84
84
84
8c
74
04
04
78
ENDCHAR
STARTCHAR 254
ENCODING 254
SWIDTH 560 0
DWIDTH 7 0
BBX 6 10 0 -2
BITMAP
40
40
f0
40
40
40
44
38
10
20
ENDCHAR
STARTCHAR 255
ENCODING 255
SWIDTH 560 0
DWIDTH 7 0
BBX 2 2 2 7
BITMAP
c0
c0
ENDCHAR
ENDFONT
